<?xml version="1.0" encoding="utf-8"?>
<!-- Generator: Adobe Illustrator 23.0.1, SVG Export Plug-In . SVG Version: 6.00 Build 0)  -->
<svg version="1.1" id="Livello_1" xmlns="http://www.w3.org/2000/svg" xmlns:xlink="http://www.w3.org/1999/xlink" x="0px" y="0px"
	 viewBox="0 0 30 30" style="enable-background:new 0 0 30 30;" xml:space="preserve">
<style type="text/css">
	.st0{fill:#FFFFFF;}
</style>
<path class="st0" d="M24.7,2.65c-2.93,0-6.56,2.86-8.71,6.83c-1.94-4.15-5.93-7.37-9.2-7.37c-4.22,0-6.5,3.33-6.5,6.47
	c0,7.8,10.16,14.14,15.61,17.54c1.14,0.71,2.05,1.28,2.62,1.7l0.08,0.06l0.08-0.05c7.1-4.41,11.03-14.55,11.03-19.87
	C29.71,4.64,27.84,2.65,24.7,2.65z M18.43,26.08c-1.26-2.07-3.73-4.14-6.33-6.32c-4.17-3.49-8.49-7.11-8.79-11.35
	c-0.11-1.51,0.23-2.7,1-3.53c0.72-0.79,1.7-1.07,2.36-1.07c2.09,0,4.34,4.11,6.14,7.42c1.51,2.77,2.48,4.47,3.28,4.47
	c0.35,0,0.78-0.38,0.78-0.84c0-1.17,4.39-10.51,8.64-10.51c0.16,0,1.65,0.07,1.65,2.54C27.16,12.11,21.47,22.17,18.43,26.08z"/>
</svg>
