<?xml version="1.0" encoding="utf-8"?>
<!-- Generator: Adobe Illustrator 23.0.1, SVG Export Plug-In . SVG Version: 6.00 Build 0)  -->
<svg version="1.1" id="Layer_1" xmlns="http://www.w3.org/2000/svg" xmlns:xlink="http://www.w3.org/1999/xlink" x="0px" y="0px"
	 viewBox="70.03 70.03 29 29" style="enable-background:new 70.03 70.03 29 29;" xml:space="preserve">
<style type="text/css">
	.st0{fill:#FFFFFF;}
</style>
<g>
	<path class="st0" d="M91.03,70.03H78.03c-4.41,0-8,3.59-8,8v12.99c0,4.41,3.59,8,8,8h12.99c4.41,0,8-3.59,8-8V78.03
		C99.03,73.62,95.44,70.03,91.03,70.03z M96.46,91.03c0,2.99-2.44,5.43-5.43,5.43H78.03c-2.99,0-5.43-2.44-5.43-5.43V78.03
		c0-2.99,2.44-5.43,5.43-5.43h12.99c2.99,0,5.43,2.44,5.43,5.43L96.46,91.03L96.46,91.03z"/>
	<path class="st0" d="M84.53,77.06c-4.12,0-7.47,3.35-7.47,7.47c0,4.12,3.35,7.47,7.47,7.47c4.12,0,7.47-3.35,7.47-7.47
		C92,80.41,88.65,77.06,84.53,77.06z M84.53,89.43c-2.7,0-4.9-2.2-4.9-4.9c0-2.7,2.2-4.9,4.9-4.9c2.7,0,4.9,2.2,4.9,4.9
		C89.43,87.23,87.23,89.43,84.53,89.43z"/>
	<path class="st0" d="M92.32,74.88c-0.5,0-0.98,0.2-1.33,0.55c-0.35,0.35-0.55,0.84-0.55,1.33c0,0.5,0.2,0.98,0.55,1.33
		c0.35,0.35,0.84,0.55,1.33,0.55c0.5,0,0.98-0.2,1.33-0.55c0.35-0.35,0.55-0.84,0.55-1.33c0-0.5-0.2-0.98-0.55-1.33
		C93.3,75.08,92.81,74.88,92.32,74.88z"/>
</g>
</svg>
