<?xml version="1.0" encoding="utf-8"?>
<!-- Generator: Adobe Illustrator 23.0.1, SVG Export Plug-In . SVG Version: 6.00 Build 0)  -->
<svg version="1.1" id="Layer_1" xmlns="http://www.w3.org/2000/svg" xmlns:xlink="http://www.w3.org/1999/xlink" x="0px" y="0px"
	 viewBox="19 17 32 32" style="enable-background:new 19 17 32 32;" xml:space="preserve">
<style type="text/css">
	.st0{fill:#FFFFFF;}
</style>
<g>
	<path class="st0" d="M50.84,48.14V36.42c0-6.27-3.35-9.19-7.82-9.19c-3.6,0-5.22,1.98-6.12,3.37v-2.89h-6.79
		c0.09,1.92,0,20.43,0,20.43h6.79V36.73c0-0.61,0.04-1.22,0.22-1.65c0.49-1.22,1.61-2.48,3.48-2.48c2.46,0,3.44,1.87,3.44,4.62
		v10.93L50.84,48.14L50.84,48.14z M22.96,24.92c2.37,0,3.84-1.57,3.84-3.53c-0.04-2-1.47-3.53-3.8-3.53c-2.32,0-3.84,1.52-3.84,3.53
		c0,1.96,1.47,3.53,3.75,3.53H22.96z M26.35,48.14V27.71h-6.79v20.43H26.35z"/>
</g>
</svg>
