<?xml version="1.0" encoding="utf-8"?>
<!-- Generator: Adobe Illustrator 23.0.1, SVG Export Plug-In . SVG Version: 6.00 Build 0)  -->
<svg version="1.1" id="Livello_1" xmlns="http://www.w3.org/2000/svg" xmlns:xlink="http://www.w3.org/1999/xlink" x="0px" y="0px"
	 viewBox="0 0 40 40" style="enable-background:new 0 0 40 40;" xml:space="preserve">
<style type="text/css">
	.st0{fill:#FFFFFF;}
</style>
<path id="XMLID_1450_" class="st0" d="M0.33,32.36c3.57,2.29,7.81,3.63,12.37,3.63c14.98,0,23.45-12.66,22.94-24.01
	c1.58-1.14,2.94-2.56,4.03-4.18c-1.45,0.64-3,1.08-4.64,1.27c1.67-1,2.95-2.58,3.55-4.46c-1.56,0.93-3.29,1.6-5.12,1.96
	c-1.47-1.57-3.57-2.55-5.89-2.55c-5.21,0-9.04,4.86-7.86,9.91C13,13.59,7.05,10.38,3.07,5.49c-2.11,3.63-1.1,8.37,2.5,10.78
	C4.24,16.23,3,15.86,1.91,15.26C1.82,19,4.5,22.49,8.38,23.27C7.25,23.58,6,23.65,4.74,23.41c1.02,3.21,4.01,5.54,7.54,5.61
	C8.89,31.68,4.61,32.86,0.33,32.36z"/>
</svg>
