<?xml version="1.0" encoding="utf-8"?>
<!-- Generator: Adobe Illustrator 23.0.1, SVG Export Plug-In . SVG Version: 6.00 Build 0)  -->
<svg version="1.1" id="Livello_1" xmlns="http://www.w3.org/2000/svg" xmlns:xlink="http://www.w3.org/1999/xlink" x="0px" y="0px"
	 viewBox="0 0 18.04 26.04" style="enable-background:new 0 0 18.04 26.04;" xml:space="preserve">
<style type="text/css">
	.st0{fill:#BA9A40;}
</style>
<path class="st0" d="M16.58,16.56c0.81-1.35,1.35-3.07,1.45-4.76c0.07-1.09-0.18-2.23-0.7-3.3c-0.82-1.69-2.24-2.63-3.6-3.55
	c-1.02-0.68-1.98-1.33-2.66-2.25l-0.12-0.16c-0.4-0.54-0.86-1.15-0.93-1.67C9.93,0.34,9.46-0.03,8.94,0C8.42,0.04,8.01,0.47,8.01,1
	v17.85c-0.84-0.51-1.87-0.82-3-0.82c-2.76,0-5.01,1.8-5.01,4.01s2.25,4.01,5.01,4.01s5.01-1.8,5.01-4.01V10.36
	c1.5,0.57,3.97,2.04,4.64,5.46c-0.13,0.19-0.25,0.39-0.39,0.55c-0.37,0.41-0.33,1.05,0.09,1.41c0.41,0.37,1.05,0.32,1.41-0.09
	c0.27-0.3,0.51-0.66,0.74-1.03C16.53,16.62,16.56,16.59,16.58,16.56z"/>
</svg>
